<svg viewBox="0 0 256 256" xmlns="http://www.w3.org/2000/svg">
  <!-- Define gradients -->
  <defs>
    <linearGradient id="goldGradient" x1="0%" y1="0%" x2="100%" y2="100%">
      <stop offset="0%" style="stop-color:#D4AF37;stop-opacity:1" />
      <stop offset="100%" style="stop-color:#AA8C1A;stop-opacity:1" />
    </linearGradient>
    
    <linearGradient id="redGradient" x1="0%" y1="0%" x2="0%" y2="100%">
      <stop offset="0%" style="stop-color:#C41E3A;stop-opacity:1" />
      <stop offset="100%" style="stop-color:#8B1428;stop-opacity:1" />
    </linearGradient>
    
    <filter id="innerShadow" x="-50%" y="-50%" width="200%" height="200%">
      <feDropShadow dx="1" dy="1" stdDeviation="2" flood-opacity="0.15"/>
    </filter>
  </defs>
  
  <!-- Background for app icon -->
  <rect width="256" height="256" fill="#FFFFFF" rx="0"/>
  
  <!-- Shield shape - main mark -->
  <g transform="translate(50, 35)">
    <!-- Outer shield -->
    <path d="M 0 0 L 0 90 Q 0 130 55 160 Q 110 130 110 90 L 110 0 Z" fill="url(#redGradient)" stroke="#8B1428" stroke-width="3" filter="url(#innerShadow)"/>
    
    <!-- Inner highlight -->
    <path d="M 4 3 L 4 87 Q 4 124 55 152 Q 103 125 103 90 L 103 3 Z" fill="none" stroke="#FFFFFF" stroke-width="1" opacity="0.4"/>
    
    <!-- Newspaper fold accent - prominent -->
    <g transform="translate(55, 50)">
      <!-- Left page -->
      <path d="M -25 -20 L -8 -20 L -8 50 L -25 50 Z" fill="#FFFFFF" opacity="0.95"/>
      <!-- Right page -->
      <path d="M 6 -20 L 25 -20 L 25 50 L 6 50 Z" fill="#FFFFFF" opacity="0.90"/>
      <!-- Fold/spine -->
      <path d="M -3 -20 L -3 50" stroke="url(#goldGradient)" stroke-width="2.5"/>
      
      <!-- Paper lines (text effect) -->
      <line x1="-20" y1="5" x2="-12" y2="5" stroke="#C41E3A" stroke-width="1.5" opacity="0.6"/>
      <line x1="-20" y1="15" x2="-12" y2="15" stroke="#C41E3A" stroke-width="1.5" opacity="0.6"/>
      <line x1="-20" y1="25" x2="-12" y2="25" stroke="#C41E3A" stroke-width="1.5" opacity="0.6"/>
      
      <line x1="11" y1="5" x2="19" y2="5" stroke="#C41E3A" stroke-width="1.5" opacity="0.6"/>
      <line x1="11" y1="15" x2="19" y2="15" stroke="#C41E3A" stroke-width="1.5" opacity="0.6"/>
      <line x1="11" y1="25" x2="19" y2="25" stroke="#C41E3A" stroke-width="1.5" opacity="0.6"/>
    </g>
    
    <!-- Gold crown accent at top -->
    <g transform="translate(55, 18)">
      <path d="M -15 8 L -8 -2 L 0 -5 L 8 -2 L 15 8 Z" fill="url(#goldGradient)" stroke="#AA8C1A" stroke-width="1.5"/>
      <!-- Jewels -->
      <circle cx="-8" cy="-2" r="3" fill="#FFFFFF" opacity="0.8"/>
      <circle cx="0" cy="-5" r="3.5" fill="#FFFFFF" opacity="0.8"/>
      <circle cx="8" cy="-2" r="3" fill="#FFFFFF" opacity="0.8"/>
    </g>
  </g>
  
  <!-- Subtle bottom accent line -->
  <rect x="30" y="225" width="196" height="2" fill="url(#goldGradient)" opacity="0.6" rx="1"/>
</svg>