<svg viewBox="0 0 1000 300" xmlns="http://www.w3.org/2000/svg">
  <!-- Define gradients and patterns -->
  <defs>
    <linearGradient id="goldGradient" x1="0%" y1="0%" x2="100%" y2="100%">
      <stop offset="0%" style="stop-color:#D4AF37;stop-opacity:1" />
      <stop offset="100%" style="stop-color:#AA8C1A;stop-opacity:1" />
    </linearGradient>
    
    <linearGradient id="redGradient" x1="0%" y1="0%" x2="0%" y2="100%">
      <stop offset="0%" style="stop-color:#C41E3A;stop-opacity:1" />
      <stop offset="100%" style="stop-color:#8B1428;stop-opacity:1" />
    </linearGradient>
    
    <filter id="shadow" x="-50%" y="-50%" width="200%" height="200%">
      <feDropShadow dx="2" dy="2" stdDeviation="3" flood-opacity="0.2"/>
    </filter>
  </defs>
  
  <!-- Background -->
  <rect width="1000" height="300" fill="#FFFFFF"/>
  
  <!-- Icon/Mark Section -->
  <g id="mark" filter="url(#shadow)">
    <!-- Shield shape (journalism/authority) -->
    <path d="M 80 60 L 80 140 Q 80 180 130 210 Q 180 180 180 140 L 180 60 Z" fill="url(#redGradient)" stroke="#8B1428" stroke-width="2"/>
    
    <!-- Newspaper fold accent inside shield -->
    <g transform="translate(130, 100)">
      <!-- Left page fold -->
      <path d="M -35 -25 L -15 -25 L -15 35 L -35 35 Z" fill="#FFFFFF" opacity="0.9"/>
      <!-- Right page fold -->
      <path d="M 5 -25 L 35 -25 L 35 35 L 5 35 Z" fill="#FFFFFF" opacity="0.85"/>
      <!-- Fold line -->
      <line x1="-5" y1="-25" x2="-5" y2="35" stroke="url(#goldGradient)" stroke-width="2"/>
    </g>
    
    <!-- Gold crown accent (premium news) -->
    <g transform="translate(130, 45)">
      <path d="M -20 10 L -12 0 L 0 -5 L 12 0 L 20 10 Z" fill="url(#goldGradient)" stroke="#AA8C1A" stroke-width="1.5"/>
      <circle cx="-12" cy="0" r="3" fill="#FFFFFF"/>
      <circle cx="0" cy="-5" r="3.5" fill="#FFFFFF"/>
      <circle cx="12" cy="0" r="3" fill="#FFFFFF"/>
    </g>
  </g>
  
  <!-- Typography Section -->
  <g id="typography">
    <!-- Main Title -->
    <text x="230" y="110" font-family="Georgia, serif" font-size="72" font-weight="bold" fill="#1a1a1a" letter-spacing="-1">
      TRANSILVANIA
    </text>
    
    <!-- Subtitle -->
    <text x="230" y="160" font-family="Georgia, serif" font-size="48" font-style="italic" fill="#C41E3A" letter-spacing="2">
      TIMES
    </text>
    
    <!-- Tagline -->
    <text x="230" y="195" font-family="Georgia, serif" font-size="16" fill="#666666" letter-spacing="1">
      News from the Heart of Transylvania
    </text>
    
    <!-- Decorative line -->
    <line x1="230" y1="210" x2="750" y2="210" stroke="url(#goldGradient)" stroke-width="2"/>
  </g>
  
  <!-- Optional: Secondary elements for sophistication -->
  <g opacity="0.03">
    <path d="M 50 250 Q 500 200 950 250" stroke="#1a1a1a" stroke-width="1" fill="none"/>
  </g>
</svg>